<svg width="1920" height="683" viewBox="0 0 1920 683" fill="none" xmlns="http://www.w3.org/2000/svg">
<g clip-path="url(#clip0_271_905)">
<rect width="1920" height="683" fill="#121212"/>
<path d="M220.356 532.876C220.661 532.159 220.005 531.465 219.325 531.788C219.178 531.86 219.065 531.979 218.997 532.135C218.68 532.852 219.348 533.545 220.027 533.223C220.174 533.151 220.288 533.031 220.356 532.876Z" fill="white" fill-opacity="0.1"/>
<path d="M765.101 574.409C765.408 573.691 764.75 572.998 764.069 573.321C763.921 573.393 763.808 573.512 763.739 573.667C763.433 574.385 764.091 575.078 764.772 574.755C764.92 574.684 765.033 574.564 765.101 574.409Z" fill="white" fill-opacity="0.1"/>
<path d="M647.506 505.952C647.812 505.235 647.155 504.542 646.476 504.865C646.329 504.936 646.215 505.056 646.148 505.211C645.831 505.928 646.498 506.622 647.178 506.299C647.325 506.227 647.438 506.108 647.506 505.952Z" fill="white" fill-opacity="0.1"/>
<path d="M487.784 177.035C488.101 176.317 487.433 175.624 486.754 175.947C486.607 176.019 486.494 176.138 486.426 176.293C486.12 177.011 486.777 177.704 487.456 177.381C487.603 177.31 487.716 177.19 487.784 177.035Z" fill="white" fill-opacity="0.1"/>
<path d="M586.285 158.623C586.602 157.907 585.934 157.204 585.255 157.538C585.108 157.609 584.995 157.728 584.927 157.883C584.621 158.599 585.278 159.29 585.957 158.968C586.104 158.897 586.217 158.778 586.285 158.623Z" fill="white" fill-opacity="0.1"/>
<path d="M1734.9 10.7538C1735.21 10.0365 1734.55 9.34312 1733.87 9.66589C1733.72 9.73762 1733.61 9.85717 1733.54 10.0126C1733.23 10.7299 1733.89 11.4232 1734.57 11.1005C1734.72 11.0287 1734.83 10.9092 1734.9 10.7538Z" fill="white" fill-opacity="0.8"/>
<path d="M1226.84 603.394C1227.15 602.677 1226.49 601.984 1225.81 602.307C1225.66 602.378 1225.55 602.498 1225.48 602.653C1225.17 603.37 1225.83 604.064 1226.51 603.741C1226.66 603.669 1226.77 603.55 1226.84 603.394Z" fill="white" fill-opacity="0.8"/>
<path d="M1361.77 644.325C1362.09 643.608 1361.42 642.915 1360.74 643.237C1360.6 643.309 1360.48 643.429 1360.42 643.584C1360.11 644.301 1360.77 644.995 1361.45 644.672C1361.59 644.6 1361.71 644.481 1361.77 644.325Z" fill="white" fill-opacity="0.1"/>
<path d="M1640.41 481.022C1640.73 480.304 1640.06 479.611 1639.38 479.934C1639.23 480.005 1639.12 480.125 1639.05 480.28C1638.75 480.998 1639.4 481.691 1640.08 481.368C1640.23 481.297 1640.34 481.177 1640.41 481.022Z" fill="white" fill-opacity="0.1"/>
<path d="M1704.76 221.401C1705.08 220.684 1704.41 219.99 1703.73 220.313C1703.58 220.385 1703.47 220.505 1703.4 220.66C1703.1 221.377 1703.75 222.071 1704.43 221.748C1704.58 221.676 1704.69 221.557 1704.76 221.401Z" fill="white" fill-opacity="0.1"/>
<path d="M1639.03 25.4986C1639.34 24.7814 1638.68 24.088 1638 24.4108C1637.86 24.4825 1637.74 24.602 1637.68 24.7574C1637.36 25.4747 1638.03 26.1681 1638.71 25.8453C1638.85 25.7736 1638.97 25.654 1639.03 25.4986Z" fill="white" fill-opacity="0.1"/>
<path d="M1753.1 73.053C1753.4 72.3357 1752.75 71.6423 1752.07 71.9651C1751.92 72.0368 1751.8 72.1564 1751.74 72.3118C1751.43 73.0291 1752.09 73.7224 1752.77 73.3997C1752.92 73.3279 1753.03 73.2084 1753.1 73.053Z" fill="white" fill-opacity="0.1"/>
<path d="M1628.73 111.391C1629.05 110.674 1628.38 109.98 1627.7 110.303C1627.56 110.375 1627.44 110.494 1627.38 110.65C1627.07 111.367 1627.73 112.06 1628.41 111.738C1628.55 111.666 1628.67 111.546 1628.73 111.391Z" fill="white" fill-opacity="0.1"/>
<path d="M1631.77 282.314C1632.08 281.597 1631.42 280.904 1630.74 281.226C1630.59 281.298 1630.48 281.418 1630.41 281.573C1630.1 282.29 1630.76 282.984 1631.44 282.661C1631.59 282.589 1631.7 282.47 1631.77 282.314Z" fill="white" fill-opacity="0.1"/>
<path d="M1871.39 309.47C1871.7 308.753 1871.04 308.06 1870.36 308.382C1870.22 308.454 1870.1 308.574 1870.04 308.729C1869.72 309.446 1870.39 310.14 1871.07 309.817C1871.21 309.745 1871.33 309.626 1871.39 309.47Z" fill="white" fill-opacity="0.1"/>
<path d="M598.976 323.847C599.281 323.13 598.625 322.436 597.946 322.759C597.798 322.831 597.685 322.95 597.617 323.106C597.3 323.823 597.968 324.517 598.647 324.194C598.795 324.122 598.908 324.002 598.976 323.847Z" fill="white" fill-opacity="0.1"/>
<path d="M982.672 561.862C982.978 561.144 982.32 560.451 981.639 560.774C981.491 560.846 981.378 560.965 981.31 561.12C981.003 561.838 981.662 562.531 982.343 562.208C982.49 562.137 982.604 562.017 982.672 561.862Z" fill="white" fill-opacity="0.1"/>
<path d="M776.986 499.629C777.303 498.912 776.635 498.218 775.956 498.541C775.809 498.613 775.695 498.732 775.627 498.888C775.322 499.605 775.978 500.298 776.657 499.976C776.805 499.904 776.918 499.784 776.986 499.629Z" fill="white" fill-opacity="0.1"/>
<path d="M390.977 595.052C391.283 594.334 390.626 593.641 389.947 593.964C389.8 594.036 389.687 594.155 389.619 594.311C389.302 595.028 389.97 595.721 390.649 595.398C390.796 595.327 390.909 595.207 390.977 595.052Z" fill="white" fill-opacity="0.1"/>
<path d="M1304.18 13.9486C1304.5 13.2313 1303.83 12.5379 1303.15 12.8607C1303.01 12.9324 1302.89 13.052 1302.83 13.2074C1302.52 13.9247 1303.18 14.6181 1303.86 14.2953C1304 14.2236 1304.12 14.104 1304.18 13.9486Z" fill="white" fill-opacity="0.8"/>
<path d="M602.008 648.122C602.313 647.405 601.657 646.712 600.978 647.034C600.831 647.106 600.717 647.226 600.65 647.381C600.333 648.098 601 648.792 601.68 648.469C601.827 648.397 601.94 648.278 602.008 648.122Z" fill="white" fill-opacity="0.8"/>
<path d="M401.814 87.4297C402.131 86.7124 401.463 86.019 400.784 86.3418C400.637 86.4135 400.524 86.5331 400.456 86.6885C400.15 87.4058 400.807 88.0991 401.486 87.7764C401.633 87.7046 401.746 87.5851 401.814 87.4297Z" fill="white" fill-opacity="0.1"/>
<path d="M588.359 28.3253C588.665 27.608 588.008 26.9146 587.329 27.2374C587.182 27.3092 587.069 27.4287 587.001 27.5841C586.684 28.3014 587.351 28.9948 588.031 28.672C588.178 28.6003 588.291 28.4807 588.359 28.3253Z" fill="white" fill-opacity="0.8"/>
<path d="M150.065 445.251C150.371 444.533 149.713 443.84 149.032 444.163C148.884 444.234 148.771 444.354 148.703 444.509C148.396 445.227 149.055 445.92 149.736 445.597C149.883 445.526 149.997 445.406 150.065 445.251Z" fill="white" fill-opacity="0.8"/>
<path d="M240.483 413.536C240.8 412.819 240.132 412.126 239.453 412.448C239.306 412.52 239.192 412.64 239.124 412.795C238.819 413.512 239.475 414.206 240.155 413.883C240.302 413.811 240.415 413.692 240.483 413.536Z" fill="white" fill-opacity="0.1"/>
<path d="M253.193 228.002C253.499 227.285 252.841 226.591 252.16 226.914C252.012 226.986 251.899 227.105 251.831 227.261C251.524 227.978 252.183 228.672 252.864 228.349C253.011 228.277 253.125 228.157 253.193 228.002Z" fill="white" fill-opacity="0.1"/>
<path d="M242.576 312.665C242.882 311.948 242.225 311.254 241.546 311.577C241.399 311.649 241.286 311.769 241.218 311.924C240.901 312.641 241.569 313.335 242.248 313.012C242.395 312.94 242.508 312.821 242.576 312.665Z" fill="white" fill-opacity="0.1"/>
<path d="M378.917 654.796C379.223 654.078 378.566 653.385 377.887 653.708C377.74 653.78 377.627 653.899 377.559 654.055C377.242 654.772 377.91 655.465 378.589 655.142C378.736 655.071 378.849 654.951 378.917 654.796Z" fill="white" fill-opacity="0.8"/>
<path d="M585.765 416.066C586.071 415.348 585.413 414.655 584.732 414.978C584.585 415.05 584.471 415.169 584.403 415.325C584.097 416.042 584.755 416.735 585.436 416.412C585.583 416.341 585.697 416.221 585.765 416.066Z" fill="white" fill-opacity="0.1"/>
<path d="M534.795 352.005C535.101 351.288 534.443 350.595 533.762 350.917C533.614 350.989 533.501 351.109 533.433 351.264C533.126 351.981 533.785 352.675 534.466 352.352C534.613 352.28 534.727 352.161 534.795 352.005Z" fill="white" fill-opacity="0.8"/>
<path d="M332.539 234.739C333.22 235.061 333.879 234.369 333.572 233.654C333.504 233.499 333.39 233.38 333.243 233.308C332.562 232.974 331.904 233.678 332.21 234.393C332.278 234.548 332.392 234.667 332.539 234.739Z" fill="white" fill-opacity="0.8"/>
<path d="M396.348 474.867C396.653 474.15 395.997 473.457 395.318 473.78C395.17 473.851 395.057 473.971 394.989 474.126C394.672 474.844 395.34 475.537 396.019 475.214C396.167 475.142 396.28 475.023 396.348 474.867Z" fill="white" fill-opacity="0.1"/>
<path d="M874.994 544.29C875.3 543.573 874.643 542.879 873.964 543.202C873.817 543.274 873.704 543.394 873.636 543.549C873.319 544.266 873.987 544.96 874.666 544.637C874.813 544.565 874.926 544.446 874.994 544.29Z" fill="white" fill-opacity="0.1"/>
<path d="M1085.8 667.288C1086.11 666.573 1085.45 665.881 1084.77 666.203C1084.62 666.275 1084.51 666.394 1084.44 666.549C1084.12 667.264 1084.79 667.968 1085.47 667.634C1085.62 667.562 1085.73 667.443 1085.8 667.288Z" fill="white" fill-opacity="0.1"/>
<path d="M982.672 617.771C982.978 617.054 982.32 616.361 981.639 616.683C981.491 616.755 981.378 616.875 981.31 617.03C981.003 617.747 981.662 618.441 982.343 618.118C982.49 618.046 982.604 617.927 982.672 617.771Z" fill="white" fill-opacity="0.8"/>
<path d="M1441.37 395.671C1441.68 394.954 1441.02 394.261 1440.34 394.583C1440.2 394.655 1440.08 394.775 1440.01 394.93C1439.7 395.647 1440.37 396.341 1441.04 396.018C1441.19 395.946 1441.31 395.827 1441.37 395.671Z" fill="white" fill-opacity="0.8"/>
<path d="M575.39 141.406C575.695 140.688 575.039 139.995 574.36 140.318C574.212 140.389 574.099 140.509 574.031 140.664C573.714 141.382 574.382 142.075 575.061 141.752C575.209 141.681 575.322 141.561 575.39 141.406Z" fill="white" fill-opacity="0.1"/>
<path d="M1550.33 172.131C1550.64 171.414 1549.98 170.72 1549.3 171.043C1549.15 171.115 1549.04 171.234 1548.97 171.39C1548.66 172.107 1549.32 172.8 1550 172.478C1550.15 172.406 1550.26 172.286 1550.33 172.131Z" fill="white" fill-opacity="0.1"/>
<path d="M1572.66 40.2015C1572.96 39.4861 1572.31 38.7946 1571.63 39.1165C1571.48 39.188 1571.37 39.3073 1571.3 39.4623C1570.98 40.1776 1571.65 40.8811 1572.33 40.5472C1572.48 40.4757 1572.59 40.3565 1572.66 40.2015Z" fill="white" fill-opacity="0.1"/>
<path d="M1468.13 331.016C1468.43 330.299 1467.78 329.605 1467.1 329.928C1466.95 330 1466.84 330.119 1466.77 330.275C1466.45 330.992 1467.12 331.685 1467.8 331.363C1467.95 331.291 1468.06 331.171 1468.13 331.016Z" fill="white" fill-opacity="0.1"/>
<path d="M147.032 13.9455C147.338 13.2301 146.681 12.5386 146.002 12.8605C145.855 12.932 145.742 13.0513 145.674 13.2063C145.357 13.9216 146.025 14.6251 146.704 14.2912C146.851 14.2197 146.964 14.1005 147.032 13.9455Z" fill="white" fill-opacity="0.1"/>
<path d="M1760.35 124.684C1759.67 124.35 1759.01 125.053 1759.32 125.769C1759.39 125.924 1759.5 126.043 1759.65 126.115C1760.33 126.437 1760.99 125.745 1760.68 125.03C1760.61 124.875 1760.5 124.755 1760.35 124.684Z" fill="white" fill-opacity="0.1"/>
<path d="M996.316 31.5201C996.633 30.8029 995.965 30.1095 995.286 30.4323C995.139 30.504 995.026 30.6235 994.958 30.7789C994.652 31.4962 995.309 32.1896 995.988 31.8668C996.135 31.7951 996.248 31.6756 996.316 31.5201Z" fill="white" fill-opacity="0.1"/>
<path d="M765.266 449.168C765.573 448.45 764.915 447.757 764.234 448.08C764.086 448.152 763.973 448.271 763.904 448.427C763.598 449.144 764.256 449.837 764.937 449.514C765.085 449.443 765.198 449.323 765.266 449.168Z" fill="white" fill-opacity="0.1"/>
<path d="M856.914 51.2179C857.219 50.5026 856.563 49.811 855.884 50.133C855.736 50.2045 855.623 50.3237 855.555 50.4787C855.238 51.1941 855.906 51.8975 856.585 51.5637C856.733 51.4922 856.846 51.3729 856.914 51.2179Z" fill="white" fill-opacity="0.1"/>
<path d="M1508.92 499.563C1509.24 498.845 1508.57 498.152 1507.89 498.475C1507.75 498.546 1507.63 498.666 1507.57 498.821C1507.26 499.539 1507.92 500.232 1508.6 499.909C1508.74 499.838 1508.86 499.718 1508.92 499.563Z" fill="white" fill-opacity="0.8"/>
<path d="M218.552 74.8914C218.869 74.1741 218.201 73.4807 217.522 73.8035C217.375 73.8752 217.262 73.9947 217.194 74.1501C216.888 74.8674 217.545 75.5608 218.224 75.238C218.371 75.1663 218.484 75.0468 218.552 74.8914Z" fill="white" fill-opacity="0.8"/>
<path d="M1.4393 92.2219C1.74575 91.5046 1.08744 90.8113 0.406445 91.134C0.258895 91.2058 0.14542 91.3253 0.0773202 91.4807C-0.22913 92.198 0.429139 92.8914 1.11014 92.5686C1.25769 92.4969 1.3712 92.3773 1.4393 92.2219Z" fill="white" fill-opacity="0.1"/>
<path d="M224.924 151.588C225.231 150.87 224.572 150.177 223.891 150.5C223.744 150.571 223.63 150.691 223.562 150.846C223.256 151.564 223.914 152.257 224.595 151.934C224.743 151.862 224.856 151.743 224.924 151.588Z" fill="white" fill-opacity="0.1"/>
<path d="M683.359 52.2866C683.666 51.5693 683.007 50.876 682.326 51.1987C682.179 51.2705 682.065 51.39 681.997 51.5454C681.691 52.2627 682.349 52.9561 683.03 52.6333C683.178 52.5616 683.291 52.442 683.359 52.2866Z" fill="white" fill-opacity="0.1"/>
<path d="M720.895 682.572C721.212 681.855 720.545 681.161 719.865 681.484C719.718 681.556 719.605 681.675 719.537 681.831C719.231 682.548 719.888 683.241 720.567 682.919C720.714 682.847 720.828 682.727 720.895 682.572V682.572Z" fill="white" fill-opacity="0.1"/>
<path d="M1692.43 660.901C1692.74 660.184 1692.08 659.491 1691.4 659.814C1691.25 659.885 1691.14 660.005 1691.07 660.16C1690.77 660.878 1691.42 661.571 1692.1 661.248C1692.25 661.176 1692.37 661.057 1692.43 660.901Z" fill="white" fill-opacity="0.1"/>
<path d="M1212.71 108.912C1213.02 108.195 1212.36 107.501 1211.68 107.824C1211.54 107.896 1211.42 108.015 1211.36 108.171C1211.04 108.888 1211.71 109.582 1212.39 109.259C1212.53 109.187 1212.65 109.068 1212.71 108.912Z" fill="white" fill-opacity="0.1"/>
<path d="M1273.97 61.2767C1274.28 60.5594 1273.61 59.8661 1272.94 60.1888C1272.79 60.2606 1272.68 60.3801 1272.61 60.5355C1272.3 61.2528 1272.96 61.9462 1273.64 61.6234C1273.78 61.5517 1273.9 61.4321 1273.97 61.2767Z" fill="white" fill-opacity="0.1"/>
<path d="M277.459 371.769C277.764 371.052 277.108 370.359 276.428 370.682C276.281 370.753 276.168 370.873 276.1 371.028C275.783 371.746 276.451 372.439 277.13 372.116C277.277 372.044 277.391 371.925 277.459 371.769Z" fill="white" fill-opacity="0.1"/>
<path d="M654.53 138.379C654.837 137.662 654.178 136.969 653.497 137.291C653.35 137.363 653.236 137.483 653.168 137.638C652.862 138.355 653.52 139.049 654.201 138.726C654.349 138.654 654.462 138.535 654.53 138.379Z" fill="white" fill-opacity="0.1"/>
<path d="M1356.97 501.913C1357.29 501.195 1356.62 500.502 1355.94 500.825C1355.79 500.897 1355.68 501.016 1355.61 501.172C1355.3 501.889 1355.96 502.582 1356.64 502.259C1356.79 502.188 1356.9 502.068 1356.97 501.913Z" fill="white" fill-opacity="0.1"/>
<path d="M1683.33 416.497C1683.65 415.78 1682.98 415.087 1682.3 415.409C1682.15 415.481 1682.04 415.601 1681.97 415.756C1681.67 416.473 1682.32 417.167 1683 416.844C1683.15 416.772 1683.26 416.653 1683.33 416.497Z" fill="white" fill-opacity="0.8"/>
<path d="M1701.64 324.664C1701.94 323.946 1701.29 323.253 1700.61 323.576C1700.46 323.648 1700.34 323.767 1700.28 323.922C1699.97 324.64 1700.63 325.333 1701.31 325.01C1701.46 324.939 1701.57 324.819 1701.64 324.664Z" fill="white" fill-opacity="0.1"/>
<path d="M547.566 267.938C547.259 267.22 547.917 266.527 548.598 266.85C548.746 266.921 548.859 267.041 548.928 267.196C549.234 267.914 548.576 268.607 547.895 268.284C547.747 268.213 547.634 268.093 547.566 267.938Z" fill="white" fill-opacity="0.1"/>
<path d="M1031.36 597.005C1031.05 596.288 1031.71 595.594 1032.39 595.917C1032.54 595.989 1032.65 596.108 1032.72 596.264C1033.03 596.981 1032.37 597.674 1031.69 597.352C1031.54 597.28 1031.42 597.16 1031.36 597.005Z" fill="white" fill-opacity="0.1"/>
<path d="M458.086 573.006C457.78 572.289 458.437 571.596 459.116 571.918C459.263 571.99 459.376 572.11 459.444 572.265C459.761 572.982 459.093 573.676 458.414 573.353C458.267 573.281 458.154 573.162 458.086 573.006Z" fill="white" fill-opacity="0.1"/>
<path d="M888.797 600.2C888.491 599.483 889.149 598.789 889.83 599.112C889.977 599.184 890.091 599.303 890.159 599.459C890.465 600.176 889.807 600.869 889.126 600.547C888.979 600.475 888.865 600.355 888.797 600.2Z" fill="white" fill-opacity="0.1"/>
<path d="M1084.44 622.56C1084.13 621.845 1084.79 621.154 1085.47 621.475C1085.61 621.547 1085.73 621.666 1085.8 621.821C1086.11 622.537 1085.44 623.24 1084.77 622.906C1084.62 622.835 1084.51 622.715 1084.44 622.56Z" fill="white" fill-opacity="0.1"/>
<path d="M394.248 435.767C393.942 435.049 394.598 434.356 395.278 434.679C395.425 434.75 395.538 434.87 395.606 435.025C395.923 435.743 395.255 436.436 394.576 436.113C394.429 436.042 394.315 435.922 394.248 435.767Z" fill="white" fill-opacity="0.1"/>
<path d="M308.274 175.801C308.955 175.467 309.613 176.171 309.306 176.886C309.238 177.041 309.125 177.16 308.977 177.232C308.296 177.554 307.638 176.862 307.944 176.147C308.013 175.992 308.126 175.873 308.274 175.801Z" fill="white" fill-opacity="0.1"/>
<path d="M172.968 416.885C172.663 416.167 173.319 415.474 173.998 415.797C174.145 415.869 174.259 415.988 174.327 416.144C174.644 416.861 173.976 417.554 173.296 417.231C173.149 417.16 173.036 417.04 172.968 416.885Z" fill="white" fill-opacity="0.1"/>
<path d="M1394.26 50.9559C1393.94 50.2386 1394.61 49.5453 1395.29 49.868C1395.43 49.9398 1395.55 50.0593 1395.61 50.2147C1395.92 50.932 1395.26 51.6254 1394.58 51.3026C1394.44 51.2309 1394.32 51.1113 1394.26 50.9559Z" fill="white" fill-opacity="0.8"/>
<path d="M1568.99 481.122C1568.68 480.406 1569.34 479.703 1570.02 480.037C1570.17 480.108 1570.28 480.228 1570.35 480.383C1570.66 481.098 1570 481.789 1569.32 481.467C1569.17 481.396 1569.06 481.277 1568.99 481.122Z" fill="white" fill-opacity="0.1"/>
<path d="M1624.77 552.227C1624.45 551.51 1625.12 550.817 1625.8 551.14C1625.94 551.211 1626.06 551.331 1626.13 551.486C1626.43 552.204 1625.78 552.897 1625.1 552.574C1624.95 552.502 1624.84 552.383 1624.77 552.227Z" fill="white" fill-opacity="0.8"/>
<path d="M1762.35 202.444C1762.05 201.726 1762.7 201.033 1763.38 201.356C1763.53 201.427 1763.64 201.547 1763.71 201.702C1764.03 202.42 1763.36 203.113 1762.68 202.79C1762.53 202.719 1762.42 202.599 1762.35 202.444Z" fill="white" fill-opacity="0.1"/>
<path d="M1726.61 157.191C1726.3 156.474 1726.96 155.78 1727.64 156.103C1727.79 156.175 1727.9 156.294 1727.97 156.45C1728.28 157.167 1727.62 157.86 1726.94 157.538C1726.79 157.466 1726.68 157.346 1726.61 157.191Z" fill="white" fill-opacity="0.8"/>
<path d="M1621.31 373.367C1621 372.65 1621.66 371.956 1622.34 372.279C1622.49 372.351 1622.6 372.47 1622.67 372.626C1622.98 373.343 1622.32 374.036 1621.64 373.714C1621.49 373.642 1621.38 373.522 1621.31 373.367Z" fill="white" fill-opacity="0.1"/>
<path d="M1155.72 1.16931C1155.41 0.452022 1156.07 -0.241359 1156.75 0.0814202C1156.89 0.153149 1157.01 0.272689 1157.08 0.428101C1157.39 1.14539 1156.72 1.83877 1156.05 1.51599C1155.9 1.44426 1155.78 1.32472 1155.72 1.16931Z" fill="white" fill-opacity="0.1"/>
<path d="M1119.87 17.9062C1119.56 17.189 1120.22 16.4956 1120.9 16.8184C1121.05 16.8901 1121.16 17.0096 1121.23 17.1651C1121.54 17.8823 1120.88 18.5757 1120.2 18.2529C1120.05 18.1812 1119.94 18.0616 1119.87 17.9062Z" fill="white" fill-opacity="0.1"/>
<path d="M283.623 544.288C283.317 543.571 283.975 542.877 284.656 543.2C284.804 543.272 284.917 543.391 284.985 543.547C285.292 544.264 284.633 544.957 283.952 544.635C283.805 544.563 283.691 544.443 283.623 544.288Z" fill="white" fill-opacity="0.1"/>
<path d="M98.6588 347.809C98.3418 347.094 99.0097 346.391 99.6889 346.724C99.836 346.796 99.9492 346.915 100.017 347.07C100.323 347.786 99.6662 348.477 98.9871 348.155C98.8399 348.084 98.7267 347.964 98.6588 347.809Z" fill="white" fill-opacity="0.1"/>
<path d="M151.727 314.938C151.41 314.221 152.078 313.527 152.757 313.85C152.904 313.922 153.018 314.041 153.086 314.197C153.391 314.914 152.735 315.607 152.055 315.285C151.908 315.213 151.795 315.093 151.727 314.938Z" fill="white" fill-opacity="0.8"/>
<path d="M417.384 351.244C417.079 350.527 417.735 349.833 418.414 350.156C418.561 350.228 418.675 350.348 418.743 350.503C419.06 351.22 418.392 351.914 417.712 351.591C417.565 351.519 417.452 351.4 417.384 351.244Z" fill="white" fill-opacity="0.1"/>
<path d="M34.9585 180.08C34.6528 179.363 35.3094 178.669 35.9886 178.992C36.1357 179.064 36.2489 179.183 36.3168 179.339C36.6338 180.056 35.9659 180.749 35.2867 180.427C35.1396 180.355 35.0264 180.235 34.9585 180.08Z" fill="white" fill-opacity="0.1"/>
<path d="M1792.58 272.66C1792.27 271.942 1792.93 271.249 1793.61 271.572C1793.75 271.643 1793.87 271.763 1793.93 271.918C1794.25 272.636 1793.58 273.329 1792.9 273.006C1792.76 272.934 1792.64 272.815 1792.58 272.66Z" fill="white" fill-opacity="0.1"/>
<path d="M1860.96 217.538C1860.28 217.861 1859.62 217.168 1859.93 216.45C1860 216.295 1860.11 216.175 1860.26 216.104C1860.94 215.781 1861.6 216.474 1861.29 217.192C1861.22 217.347 1861.11 217.466 1860.96 217.538Z" fill="white" fill-opacity="0.8"/>
<path d="M1824.05 166.046C1823.37 166.379 1822.71 165.676 1823.02 164.961C1823.08 164.806 1823.2 164.686 1823.34 164.615C1824.03 164.293 1824.68 164.985 1824.38 165.7C1824.31 165.855 1824.2 165.974 1824.05 166.046Z" fill="white" fill-opacity="0.1"/>
<path d="M1229.77 30.61C1229.46 29.8927 1230.12 29.1993 1230.8 29.5221C1230.95 29.5938 1231.06 29.7134 1231.13 29.8688C1231.44 30.5861 1230.78 31.2794 1230.1 30.9567C1229.95 30.8849 1229.84 30.7654 1229.77 30.61Z" fill="white" fill-opacity="0.1"/>
<path d="M318.97 326.896C318.665 326.179 319.321 325.485 320 325.808C320.147 325.88 320.261 325.999 320.329 326.155C320.645 326.872 319.978 327.565 319.298 327.243C319.151 327.171 319.038 327.051 318.97 326.896Z" fill="white" fill-opacity="0.1"/>
<path d="M767.471 18.7408C767.165 18.0236 767.823 17.3302 768.504 17.653C768.652 17.7247 768.765 17.8442 768.833 17.9996C769.14 18.7169 768.481 19.4103 767.8 19.0875C767.653 19.0158 767.539 18.8963 767.471 18.7408Z" fill="white" fill-opacity="0.1"/>
<path d="M687.62 111.387C687.314 110.67 687.971 109.976 688.65 110.299C688.797 110.371 688.911 110.49 688.978 110.646C689.295 111.363 688.628 112.056 687.948 111.734C687.801 111.662 687.688 111.542 687.62 111.387Z" fill="white" fill-opacity="0.1"/>
<path d="M830.679 111.84C830.372 111.123 831.031 110.429 831.712 110.752C831.859 110.824 831.973 110.943 832.041 111.099C832.347 111.816 831.689 112.51 831.008 112.187C830.86 112.115 830.747 111.995 830.679 111.84Z" fill="white" fill-opacity="0.1"/>
<path d="M581.726 579.109C581.42 578.392 582.078 577.698 582.759 578.021C582.907 578.093 583.02 578.212 583.088 578.368C583.395 579.085 582.736 579.778 582.055 579.456C581.908 579.384 581.794 579.264 581.726 579.109Z" fill="white" fill-opacity="0.1"/>
<path d="M1614.49 587.392C1614.18 586.675 1614.85 585.982 1615.52 586.304C1615.67 586.376 1615.78 586.496 1615.85 586.651C1616.16 587.368 1615.5 588.062 1614.82 587.739C1614.68 587.667 1614.56 587.548 1614.49 587.392Z" fill="white" fill-opacity="0.8"/>
<path d="M840.267 617.771C839.96 617.054 840.619 616.361 841.3 616.683C841.447 616.755 841.561 616.875 841.629 617.03C841.935 617.747 841.277 618.441 840.596 618.118C840.448 618.046 840.335 617.927 840.267 617.771Z" fill="white" fill-opacity="0.1"/>
<path d="M943.395 664.096C943.088 663.379 943.747 662.686 944.428 663.008C944.575 663.08 944.689 663.2 944.757 663.355C945.063 664.072 944.405 664.766 943.724 664.443C943.576 664.371 943.463 664.252 943.395 664.096Z" fill="white" fill-opacity="0.8"/>
<path d="M1127.78 555.09C1127.48 554.373 1128.14 553.679 1128.82 554.002C1128.96 554.074 1129.08 554.193 1129.15 554.349C1129.45 555.066 1128.79 555.759 1128.11 555.437C1127.97 555.365 1127.85 555.245 1127.78 555.09Z" fill="white" fill-opacity="0.8"/>
<path d="M761.404 625.758C761.098 625.041 761.756 624.348 762.437 624.671C762.585 624.742 762.698 624.862 762.766 625.017C763.073 625.735 762.415 626.428 761.734 626.105C761.586 626.033 761.473 625.914 761.404 625.758Z" fill="white" fill-opacity="0.8"/>
<path d="M823.584 681.668C823.278 680.951 823.935 680.257 824.614 680.58C824.761 680.652 824.874 680.771 824.942 680.927C825.259 681.644 824.591 682.337 823.912 682.015C823.765 681.943 823.652 681.823 823.584 681.668V681.668Z" fill="white" fill-opacity="0.1"/>
<path d="M408.039 135.352C407.733 134.635 408.39 133.942 409.069 134.264C409.216 134.336 409.329 134.456 409.397 134.611C409.714 135.328 409.046 136.022 408.367 135.699C408.22 135.627 408.107 135.508 408.039 135.352Z" fill="white" fill-opacity="0.1"/>
<path d="M1300.31 565.03C1300 564.313 1300.66 563.619 1301.34 563.942C1301.48 564.014 1301.6 564.134 1301.66 564.289C1301.98 565.006 1301.31 565.7 1300.63 565.377C1300.49 565.305 1300.37 565.186 1300.31 565.03Z" fill="white" fill-opacity="0.1"/>
<path d="M1248.07 544.669C1247.75 543.952 1248.42 543.259 1249.1 543.581C1249.24 543.653 1249.36 543.773 1249.43 543.928C1249.73 544.645 1249.07 545.339 1248.4 545.016C1248.25 544.944 1248.14 544.825 1248.07 544.669Z" fill="white" fill-opacity="0.1"/>
<path d="M1513.64 256.757C1513.32 256.041 1513.99 255.338 1514.67 255.672C1514.81 255.743 1514.93 255.863 1514.99 256.018C1515.3 256.733 1514.64 257.424 1513.96 257.103C1513.82 257.031 1513.7 256.912 1513.64 256.757Z" fill="white" fill-opacity="0.1"/>
<path d="M1409.96 93.0331C1409.65 92.3158 1410.31 91.6224 1410.99 91.9452C1411.14 92.0169 1411.25 92.1365 1411.32 92.2919C1411.62 93.0092 1410.97 93.7025 1410.28 93.3798C1410.14 93.308 1410.02 93.1885 1409.96 93.0331Z" fill="white" fill-opacity="0.8"/>
<path d="M1330.12 114.586C1329.82 113.869 1330.48 113.175 1331.15 113.498C1331.3 113.57 1331.41 113.689 1331.48 113.845C1331.8 114.562 1331.13 115.255 1330.45 114.932C1330.31 114.861 1330.19 114.741 1330.12 114.586Z" fill="white" fill-opacity="0.1"/>
<path d="M1439.08 564.522C1438.77 563.804 1439.43 563.111 1440.11 563.434C1440.26 563.505 1440.37 563.625 1440.44 563.78C1440.75 564.498 1440.09 565.191 1439.41 564.868C1439.26 564.797 1439.15 564.677 1439.08 564.522Z" fill="white" fill-opacity="0.1"/>
<path d="M1418.72 149.503C1418.4 148.785 1419.07 148.092 1419.75 148.415C1419.9 148.487 1420.01 148.606 1420.08 148.761C1420.39 149.479 1419.73 150.172 1419.05 149.849C1418.9 149.778 1418.79 149.658 1418.72 149.503Z" fill="white" fill-opacity="0.1"/>
<path d="M1504.53 87.4266C1504.23 86.7112 1504.88 86.0197 1505.56 86.3416C1505.71 86.4131 1505.82 86.5323 1505.89 86.6873C1506.21 87.4027 1505.54 88.1062 1504.86 87.7723C1504.71 87.7008 1504.6 87.5816 1504.53 87.4266Z" fill="white" fill-opacity="0.1"/>
<path d="M1575.13 389.763C1574.83 389.046 1575.48 388.352 1576.16 388.675C1576.31 388.747 1576.42 388.866 1576.49 389.022C1576.81 389.739 1576.14 390.432 1575.46 390.11C1575.31 390.038 1575.2 389.918 1575.13 389.763Z" fill="white" fill-opacity="0.1"/>
<path d="M1536.01 313.499C1535.71 312.782 1536.37 312.088 1537.05 312.411C1537.19 312.483 1537.31 312.602 1537.38 312.758C1537.68 313.475 1537.02 314.168 1536.34 313.846C1536.2 313.774 1536.08 313.654 1536.01 313.499Z" fill="white" fill-opacity="0.1"/>
<path d="M1707.76 496.368C1707.44 495.651 1708.11 494.957 1708.79 495.28C1708.94 495.352 1709.05 495.471 1709.12 495.627C1709.42 496.344 1708.77 497.037 1708.09 496.714C1707.94 496.643 1707.83 496.523 1707.76 496.368Z" fill="white" fill-opacity="0.1"/>
<path d="M1501.5 434.069C1501.19 433.351 1501.85 432.658 1502.53 432.981C1502.68 433.052 1502.79 433.172 1502.86 433.327C1503.18 434.045 1502.51 434.738 1501.83 434.415C1501.68 434.344 1501.57 434.224 1501.5 434.069Z" fill="white" fill-opacity="0.1"/>
<path d="M1754.33 446.336C1754.02 445.619 1754.68 444.926 1755.36 445.248C1755.5 445.32 1755.62 445.44 1755.68 445.595C1756 446.312 1755.33 447.006 1754.65 446.683C1754.51 446.611 1754.39 446.492 1754.33 446.336Z" fill="white" fill-opacity="0.1"/>
<path d="M312.263 446.459C311.958 445.741 312.614 445.048 313.293 445.371C313.44 445.443 313.554 445.562 313.621 445.718C313.938 446.435 313.271 447.128 312.591 446.805C312.444 446.734 312.331 446.614 312.263 446.459Z" fill="white" fill-opacity="0.1"/>
<path d="M1515.4 571.513C1515.1 570.795 1515.75 570.102 1516.44 570.425C1516.58 570.496 1516.7 570.616 1516.76 570.771C1517.07 571.489 1516.41 572.182 1515.73 571.859C1515.58 571.788 1515.47 571.668 1515.4 571.513Z" fill="white" fill-opacity="0.1"/>
<path d="M1152.68 617.771C1152.38 617.054 1153.04 616.361 1153.72 616.683C1153.86 616.755 1153.98 616.875 1154.05 617.03C1154.35 617.747 1153.69 618.441 1153.01 618.118C1152.87 618.046 1152.75 617.927 1152.68 617.771Z" fill="white" fill-opacity="0.1"/>
<path d="M1492.18 648.406C1491.86 647.689 1492.53 646.995 1493.21 647.318C1493.35 647.39 1493.47 647.51 1493.54 647.665C1493.84 648.382 1493.18 649.076 1492.51 648.753C1492.36 648.681 1492.25 648.562 1492.18 648.406Z" fill="white" fill-opacity="0.8"/>
<path d="M1295.31 165.703C1295.63 164.986 1294.96 164.292 1294.28 164.615C1294.13 164.687 1294.02 164.806 1293.95 164.962C1293.65 165.679 1294.3 166.372 1294.98 166.05C1295.13 165.978 1295.24 165.858 1295.31 165.703Z" fill="white" fill-opacity="0.8"/>
<path d="M1478.82 327.042C1479.13 326.325 1478.47 325.631 1477.79 325.954C1477.64 326.026 1477.53 326.145 1477.46 326.301C1477.15 327.018 1477.81 327.711 1478.49 327.389C1478.64 327.317 1478.75 327.197 1478.82 327.042Z" fill="white" fill-opacity="0.1"/>
<path d="M1411.15 218.368C1410.84 217.65 1411.51 216.957 1412.18 217.28C1412.33 217.352 1412.45 217.471 1412.51 217.627C1412.82 218.344 1412.16 219.037 1411.48 218.714C1411.34 218.643 1411.22 218.523 1411.15 218.368Z" fill="white" fill-opacity="0.8"/>
<path d="M1400.88 253.533C1400.56 252.815 1401.23 252.122 1401.91 252.445C1402.06 252.517 1402.17 252.636 1402.24 252.792C1402.55 253.509 1401.89 254.202 1401.21 253.879C1401.06 253.808 1400.95 253.688 1400.88 253.533Z" fill="white" fill-opacity="0.8"/>
<path d="M1494.15 162.508C1493.83 161.791 1494.5 161.098 1495.18 161.42C1495.32 161.492 1495.44 161.612 1495.5 161.767C1495.81 162.484 1495.15 163.178 1494.47 162.855C1494.33 162.783 1494.21 162.664 1494.15 162.508Z" fill="white" fill-opacity="0.1"/>
<path d="M1301.79 237.653C1301.48 236.936 1302.14 236.242 1302.82 236.565C1302.97 236.637 1303.08 236.756 1303.15 236.912C1303.46 237.629 1302.8 238.322 1302.12 238C1301.97 237.928 1301.86 237.808 1301.79 237.653Z" fill="white" fill-opacity="0.1"/>
<path d="M1278.56 314.546C1278.25 313.829 1278.92 313.136 1279.59 313.459C1279.74 313.53 1279.85 313.65 1279.92 313.805C1280.23 314.523 1279.57 315.216 1278.89 314.893C1278.75 314.821 1278.63 314.702 1278.56 314.546Z" fill="white" fill-opacity="0.8"/>
<path d="M1407.75 466.036C1407.43 465.318 1408.1 464.625 1408.78 464.948C1408.92 465.019 1409.04 465.139 1409.1 465.294C1409.41 466.012 1408.75 466.705 1408.07 466.382C1407.93 466.311 1407.81 466.191 1407.75 466.036Z" fill="white" fill-opacity="0.1"/>
<path d="M1796.96 375.376C1796.65 374.659 1797.31 373.965 1797.99 374.288C1798.13 374.36 1798.25 374.479 1798.32 374.635C1798.63 375.352 1797.96 376.046 1797.29 375.723C1797.14 375.651 1797.02 375.531 1796.96 375.376Z" fill="white" fill-opacity="0.1"/>
<path d="M1919.59 122.916C1918.91 123.249 1918.25 122.546 1918.56 121.831C1918.63 121.676 1918.74 121.556 1918.89 121.485C1919.57 121.163 1920.23 121.854 1919.92 122.57C1919.85 122.725 1919.74 122.844 1919.59 122.916Z" fill="white" fill-opacity="0.1"/>
<path d="M1177.27 224.807C1177.58 224.09 1176.92 223.397 1176.24 223.719C1176.09 223.791 1175.98 223.911 1175.91 224.066C1175.61 224.783 1176.26 225.477 1176.95 225.154C1177.09 225.082 1177.21 224.963 1177.27 224.807Z" fill="white" fill-opacity="0.8"/>
<path d="M1147.14 435.455C1147.45 434.737 1146.79 434.044 1146.11 434.367C1145.96 434.439 1145.85 434.558 1145.78 434.714C1145.47 435.431 1146.13 436.124 1146.81 435.801C1146.96 435.73 1147.07 435.61 1147.14 435.455Z" fill="white" fill-opacity="0.1"/>
<path d="M1081.41 239.552C1081.71 238.835 1081.06 238.142 1080.38 238.464C1080.23 238.536 1080.12 238.656 1080.05 238.811C1079.73 239.528 1080.4 240.222 1081.08 239.899C1081.23 239.827 1081.34 239.708 1081.41 239.552Z" fill="white" fill-opacity="0.1"/>
<path d="M1195.47 287.107C1195.78 286.389 1195.12 285.696 1194.44 286.019C1194.29 286.09 1194.18 286.21 1194.11 286.365C1193.8 287.083 1194.46 287.776 1195.14 287.453C1195.29 287.382 1195.4 287.262 1195.47 287.107Z" fill="white" fill-opacity="0.1"/>
<path d="M817.36 381.354C817.677 380.637 817.009 379.943 816.33 380.266C816.183 380.338 816.069 380.457 816.001 380.613C815.696 381.33 816.352 382.023 817.032 381.701C817.179 381.629 817.292 381.509 817.36 381.354Z" fill="white" fill-opacity="0.1"/>
<path d="M1074.14 496.368C1074.46 495.651 1073.79 494.957 1073.11 495.28C1072.97 495.352 1072.85 495.471 1072.78 495.627C1072.48 496.344 1073.14 497.037 1073.81 496.714C1073.96 496.643 1074.07 496.523 1074.14 496.368Z" fill="white" fill-opacity="0.1"/>
<path d="M1313.77 523.524C1314.07 522.807 1313.42 522.113 1312.74 522.436C1312.59 522.508 1312.48 522.627 1312.41 522.783C1312.09 523.5 1312.76 524.193 1313.44 523.87C1313.59 523.799 1313.7 523.679 1313.77 523.524Z" fill="white" fill-opacity="0.1"/>
<path d="M746.559 228.002C746.876 227.285 746.209 226.591 745.529 226.914C745.382 226.986 745.269 227.105 745.201 227.261C744.896 227.978 745.552 228.672 746.231 228.349C746.378 228.277 746.492 228.157 746.559 228.002Z" fill="white" fill-opacity="0.8"/>
<path d="M738.956 442.094C739.262 441.377 738.605 440.683 737.926 441.006C737.779 441.078 737.666 441.197 737.598 441.353C737.281 442.07 737.949 442.763 738.628 442.441C738.775 442.369 738.888 442.249 738.956 442.094Z" fill="white" fill-opacity="0.1"/>
<path d="M1015.04 254.255C1015.34 253.54 1014.68 252.848 1014.01 253.17C1013.86 253.241 1013.74 253.361 1013.68 253.516C1013.36 254.231 1014.03 254.935 1014.71 254.601C1014.85 254.529 1014.97 254.41 1015.04 254.255Z" fill="white" fill-opacity="0.1"/>
<path d="M910.504 545.069C910.81 544.352 910.153 543.659 909.474 543.982C909.327 544.053 909.214 544.173 909.146 544.328C908.829 545.046 909.497 545.739 910.176 545.416C910.323 545.344 910.436 545.225 910.504 545.069Z" fill="white" fill-opacity="0.1"/>
<path d="M1202.73 338.737C1202.05 338.403 1201.39 339.107 1201.69 339.822C1201.76 339.977 1201.88 340.097 1202.02 340.168C1202.7 340.49 1203.36 339.798 1203.06 339.083C1202.99 338.928 1202.87 338.809 1202.73 338.737Z" fill="white" fill-opacity="0.1"/>
<path d="M655.089 322.966C655.395 322.248 654.738 321.555 654.059 321.878C653.912 321.95 653.798 322.069 653.731 322.224C653.414 322.942 654.081 323.635 654.761 323.312C654.908 323.241 655.021 323.121 655.089 322.966Z" fill="white" fill-opacity="0.1"/>
<path d="M716.341 275.33C716.658 274.613 715.99 273.92 715.311 274.242C715.164 274.314 715.05 274.434 714.982 274.589C714.677 275.306 715.333 276 716.012 275.677C716.16 275.605 716.273 275.486 716.341 275.33Z" fill="white" fill-opacity="0.1"/>
<path d="M1144.01 538.717C1144.32 538 1143.66 537.307 1142.98 537.63C1142.83 537.701 1142.72 537.821 1142.65 537.976C1142.35 538.693 1143 539.387 1143.69 539.064C1143.83 538.992 1143.95 538.873 1144.01 538.717Z" fill="white" fill-opacity="0.1"/>
<path d="M836.632 265.009C836.315 264.292 836.983 263.599 837.662 263.922C837.809 263.993 837.922 264.113 837.99 264.268C838.296 264.985 837.639 265.679 836.96 265.356C836.813 265.284 836.7 265.165 836.632 265.009Z" fill="white" fill-opacity="0.8"/>
<path d="M1204.73 416.497C1204.42 415.78 1205.08 415.087 1205.76 415.409C1205.9 415.481 1206.02 415.601 1206.08 415.756C1206.4 416.473 1205.73 417.167 1205.05 416.844C1204.91 416.772 1204.79 416.653 1204.73 416.497Z" fill="white" fill-opacity="0.1"/>
<path d="M1168.99 371.244C1168.67 370.527 1169.34 369.834 1170.02 370.157C1170.17 370.228 1170.28 370.348 1170.35 370.503C1170.65 371.221 1170 371.914 1169.32 371.591C1169.17 371.519 1169.06 371.4 1168.99 371.244Z" fill="white" fill-opacity="0.8"/>
<path d="M1234.95 486.713C1234.64 485.996 1235.3 485.303 1235.98 485.625C1236.13 485.697 1236.24 485.817 1236.31 485.972C1236.63 486.689 1235.96 487.383 1235.28 487.06C1235.13 486.988 1235.02 486.869 1234.95 486.713Z" fill="white" fill-opacity="0.1"/>
<path d="M1303.34 431.592C1302.66 431.915 1302 431.221 1302.3 430.504C1302.37 430.349 1302.49 430.229 1302.63 430.157C1303.31 429.834 1303.97 430.528 1303.67 431.245C1303.6 431.401 1303.48 431.52 1303.34 431.592Z" fill="white" fill-opacity="0.8"/>
<path d="M1266.42 380.099C1265.74 380.433 1265.08 379.73 1265.39 379.014C1265.46 378.859 1265.57 378.74 1265.72 378.668C1266.4 378.347 1267.06 379.038 1266.75 379.753C1266.68 379.908 1266.57 380.028 1266.42 380.099Z" fill="white" fill-opacity="0.1"/>
<path d="M672.145 244.663C671.839 243.946 672.497 243.253 673.178 243.576C673.326 243.647 673.439 243.767 673.507 243.922C673.814 244.64 673.155 245.333 672.474 245.01C672.327 244.938 672.213 244.819 672.145 244.663Z" fill="white" fill-opacity="0.1"/>
<path d="M956.011 470.81C955.694 470.095 956.362 469.392 957.041 469.725C957.188 469.797 957.301 469.916 957.369 470.071C957.675 470.787 957.018 471.478 956.339 471.156C956.192 471.085 956.079 470.965 956.011 470.81Z" fill="white" fill-opacity="0.1"/>
<path d="M852.331 307.087C852.025 306.369 852.683 305.676 853.364 305.999C853.512 306.071 853.625 306.19 853.693 306.345C854 307.063 853.341 307.756 852.66 307.433C852.513 307.362 852.399 307.242 852.331 307.087Z" fill="white" fill-opacity="0.8"/>
<path d="M772.499 328.639C772.194 327.922 772.85 327.229 773.53 327.551C773.677 327.623 773.79 327.743 773.858 327.898C774.175 328.615 773.507 329.309 772.828 328.986C772.681 328.914 772.567 328.795 772.499 328.639Z" fill="white" fill-opacity="0.1"/>
<path d="M861.097 363.556C860.78 362.839 861.448 362.146 862.127 362.468C862.274 362.54 862.387 362.66 862.455 362.815C862.761 363.532 862.104 364.226 861.425 363.903C861.278 363.831 861.165 363.712 861.097 363.556Z" fill="white" fill-opacity="0.1"/>
<path d="M693.158 357.39C692.852 356.674 693.509 355.983 694.188 356.305C694.335 356.376 694.448 356.495 694.516 356.65C694.833 357.366 694.165 358.069 693.486 357.735C693.339 357.664 693.226 357.545 693.158 357.39Z" fill="white" fill-opacity="0.1"/>
<path d="M978.389 527.552C978.082 526.835 978.741 526.142 979.422 526.465C979.569 526.536 979.683 526.656 979.751 526.811C980.057 527.529 979.399 528.222 978.718 527.899C978.57 527.827 978.457 527.708 978.389 527.552Z" fill="white" fill-opacity="0.1"/>
<path d="M1361.97 336.969C1361.29 337.303 1360.63 336.599 1360.94 335.884C1361 335.729 1361.12 335.61 1361.26 335.538C1361.95 335.216 1362.6 335.908 1362.3 336.623C1362.23 336.778 1362.12 336.897 1361.97 336.969Z" fill="white" fill-opacity="0.1"/>
<path d="M345.863 390.938C345.546 390.221 346.214 389.528 346.893 389.851C347.041 389.922 347.154 390.042 347.222 390.197C347.527 390.915 346.871 391.608 346.192 391.285C346.044 391.213 345.931 391.094 345.863 390.938Z" fill="white" fill-opacity="0.1"/>
<path d="M656.764 624.161C656.447 623.444 657.115 622.75 657.794 623.073C657.942 623.145 658.055 623.264 658.123 623.42C658.428 624.137 657.772 624.83 657.093 624.508C656.945 624.436 656.832 624.316 656.764 624.161Z" fill="white" fill-opacity="0.1"/>
<path d="M509.654 616.174C509.337 615.457 510.005 614.763 510.684 615.086C510.831 615.158 510.944 615.277 511.012 615.433C511.318 616.15 510.661 616.843 509.982 616.521C509.835 616.449 509.722 616.329 509.654 616.174Z" fill="white" fill-opacity="0.8"/>
<path d="M650.697 565.057C650.38 564.339 651.048 563.646 651.727 563.969C651.875 564.04 651.988 564.16 652.056 564.315C652.361 565.033 651.705 565.726 651.026 565.403C650.878 565.332 650.765 565.212 650.697 565.057Z" fill="white" fill-opacity="0.1"/>
<path d="M473.502 437.505C473.185 436.787 473.853 436.094 474.532 436.417C474.679 436.488 474.792 436.608 474.86 436.763C475.166 437.481 474.509 438.174 473.83 437.851C473.683 437.779 473.57 437.66 473.502 437.505Z" fill="white" fill-opacity="0.1"/>
<path d="M648.99 434.178C648.673 433.461 649.341 432.767 650.02 433.09C650.168 433.162 650.281 433.281 650.349 433.437C650.654 434.154 649.998 434.847 649.319 434.525C649.171 434.453 649.058 434.333 648.99 434.178Z" fill="white" fill-opacity="0.1"/>
<path d="M546.859 530.543C546.552 529.826 547.21 529.132 547.891 529.455C548.039 529.527 548.152 529.646 548.221 529.802C548.527 530.519 547.869 531.213 547.188 530.89C547.04 530.818 546.927 530.698 546.859 530.543Z" fill="white" fill-opacity="0.1"/>
<path d="M1096.42 68.2607C1096.72 67.5434 1096.07 66.8501 1095.39 67.1729C1095.24 67.2446 1095.13 67.3641 1095.06 67.5195C1094.74 68.2368 1095.41 68.9302 1096.09 68.6074C1096.23 68.5357 1096.35 68.4161 1096.42 68.2607Z" fill="white" fill-opacity="0.1"/>
<path d="M1050.92 210.431C1051.22 209.713 1050.57 209.02 1049.89 209.343C1049.74 209.414 1049.63 209.534 1049.56 209.689C1049.24 210.407 1049.91 211.1 1050.59 210.777C1050.74 210.705 1050.85 210.586 1050.92 210.431Z" fill="white" fill-opacity="0.8"/>
<path d="M906.997 135.315C906.691 134.597 907.347 133.904 908.027 134.227C908.174 134.299 908.287 134.418 908.355 134.573C908.672 135.291 908.004 135.984 907.325 135.661C907.178 135.59 907.064 135.47 906.997 135.315Z" fill="white" fill-opacity="0.1"/>
<path d="M1030.64 141.417C1030.33 140.7 1030.99 140.007 1031.67 140.329C1031.82 140.401 1031.93 140.521 1032 140.676C1032.31 141.393 1031.65 142.087 1030.97 141.764C1030.82 141.692 1030.7 141.573 1030.64 141.417Z" fill="white" fill-opacity="0.1"/>
<path d="M1105.67 186.469C1105.36 185.752 1106.02 185.059 1106.7 185.381C1106.85 185.453 1106.96 185.573 1107.03 185.728C1107.34 186.445 1106.68 187.139 1106 186.816C1105.85 186.744 1105.74 186.625 1105.67 186.469Z" fill="white" fill-opacity="0.1"/>
<path d="M958.565 178.482C958.248 177.765 958.915 177.072 959.595 177.394C959.742 177.466 959.855 177.586 959.923 177.741C960.229 178.458 959.572 179.152 958.893 178.829C958.746 178.757 958.632 178.638 958.565 178.482Z" fill="white" fill-opacity="0.8"/>
<path d="M1099.61 127.365C1099.29 126.648 1099.96 125.954 1100.64 126.277C1100.78 126.349 1100.9 126.468 1100.97 126.624C1101.27 127.341 1100.61 128.034 1099.94 127.712C1099.79 127.64 1099.67 127.52 1099.61 127.365Z" fill="white" fill-opacity="0.1"/>
<path d="M995.768 92.8514C995.461 92.1342 996.12 91.4408 996.801 91.7635C996.948 91.8353 997.062 91.9548 997.13 92.1102C997.436 92.8275 996.778 93.5209 996.097 93.1981C995.949 93.1264 995.836 93.0068 995.768 92.8514Z" fill="white" fill-opacity="0.1"/>
<path d="M302.278 502.012C301.972 501.295 302.63 500.601 303.311 500.924C303.458 500.996 303.572 501.115 303.64 501.271C303.946 501.988 303.288 502.681 302.607 502.359C302.46 502.287 302.346 502.167 302.278 502.012Z" fill="white" fill-opacity="0.8"/>
<path d="M125.954 124.17C125.648 123.453 126.306 122.76 126.987 123.082C127.135 123.154 127.248 123.274 127.316 123.429C127.623 124.146 126.964 124.84 126.283 124.517C126.136 124.445 126.022 124.326 125.954 124.17Z" fill="white" fill-opacity="0.1"/>
<path d="M494.162 44.2698C493.856 43.5544 494.513 42.8629 495.192 43.1848C495.339 43.2564 495.453 43.3756 495.52 43.5306C495.837 44.246 495.17 44.9494 494.49 44.6156C494.343 44.544 494.23 44.4248 494.162 44.2698Z" fill="white" fill-opacity="0.1"/>
<path d="M331.343 14.6327C331.037 13.9154 331.695 13.222 332.376 13.5448C332.524 13.6165 332.637 13.7361 332.705 13.8915C333.012 14.6088 332.354 15.3021 331.673 14.9794C331.525 14.9076 331.412 14.7881 331.343 14.6327Z" fill="white" fill-opacity="0.1"/>
<path d="M330.697 77.8452C330.38 77.1279 331.048 76.4345 331.727 76.7573C331.875 76.8291 331.988 76.9486 332.056 77.104C332.361 77.8213 331.705 78.5147 331.026 78.1919C330.878 78.1202 330.765 78.0006 330.697 77.8452Z" fill="white" fill-opacity="0.1"/>
<path d="M582.451 89.0271C582.134 88.3098 582.802 87.6164 583.481 87.9392C583.628 88.0109 583.741 88.1305 583.809 88.2859C584.115 89.0032 583.458 89.6966 582.779 89.3738C582.632 89.302 582.519 89.1825 582.451 89.0271Z" fill="white" fill-opacity="0.1"/>
<path d="M192.684 231.197C192.377 230.48 193.036 229.786 193.717 230.109C193.864 230.181 193.978 230.3 194.046 230.456C194.352 231.173 193.694 231.866 193.013 231.544C192.865 231.472 192.752 231.352 192.684 231.197Z" fill="white" fill-opacity="0.1"/>
<path d="M113.395 211.13C113.089 210.413 113.746 209.72 114.425 210.042C114.572 210.114 114.685 210.234 114.753 210.389C115.07 211.106 114.402 211.8 113.723 211.477C113.576 211.405 113.463 211.286 113.395 211.13Z" fill="white" fill-opacity="0.1"/>
</g>
<defs>
<clipPath id="clip0_271_905">
<rect width="1920" height="683" fill="white"/>
</clipPath>
</defs>
</svg>
