<svg xmlns="http://www.w3.org/2000/svg" xmlns:xlink="http://www.w3.org/1999/xlink" xmlns:xodm="http://www.corel.com/coreldraw/odm/2003" xml:space="preserve" version="1.1" style="shape-rendering:geometricPrecision;text-rendering:geometricPrecision;image-rendering:optimizeQuality;" viewBox="0 0 100000 125000" x="0px" y="0px" fill-rule="evenodd" clip-rule="evenodd"><defs><style type="text/css">
   
    .fil0 {fill:black;fill-rule:nonzero}
   
  </style></defs><g><path class="fil0" d="M14540.62 8442.61l220.51 33017.03c2.01,305.71 264.51,522.05 552.77,558.86 10446.77,1333.97 20893.2,2667.89 31340.08,4001.87 348.98,44.53 735.57,-172.71 735.57,-563.59l0 -37513.88c0,-348.75 -311.4,-567.93 -637.44,-564.04l-1484.46 17.68 -30093.25 471.96c-317.99,4.98 -636.02,236.66 -633.78,574.11zm67136.79 83729.29c-360.77,117.29 -702.07,-93.91 -704.71,-557.19l0 -11679.8c0,-58.25 -22.11,-108.39 -65.12,-147.67l-2817.06 -2573.16c-54.78,-50.04 -126.89,-65.5 -197.37,-42.32l-6375.73 2096.85c-42.43,13.95 -74.92,37.95 -100.73,74.4l-8491.94 11990.58c-24.98,35.27 -36.79,72.38 -36.79,115.59l0 6564.24c0,233.59 -120.79,445.4 -354.75,521.47l-2698.11 887.36c-247.13,81.29 -265.93,67.32 -521.48,11.65l-2835.3 -617.53c-247.73,-53.51 -404.37,-274.13 -404.37,-517.94l0 -7022.17c0,-45.57 -13.19,-84.73 -40.76,-121.01l-7873.19 -10359.98c-29.98,-39.45 -68.26,-63.86 -116.67,-74.4l-22859.94 -4979.01c-65.41,-14.25 -128.02,2.6 -177.45,47.75l-3518.35 3213.73c-43.01,39.28 -65.12,89.42 -65.12,147.67l0 11308.46c0,92.23 -24.42,178.77 -67.13,253.49 -4.48,7.84 -7.86,14.77 -11.3,23.12 -91.74,222.85 -332.51,355 -576.35,302.33l-3336.39 -726.69c-7.57,-1.63 -15.06,-3.45 -22.46,-5.41 -6,-1.59 -11.18,-2.72 -17.3,-3.77 -240.83,-41.49 -424.06,-251.38 -424.06,-504.07l0 -15684.95c0,-95.12 -64.5,-175.18 -157.44,-195.42l-183.94 -40.06c-479.72,-104.5 -815.19,-522.35 -816.07,-1012.97l-54.76 -29594.18c-0.19,-101.12 -74.36,-185.21 -174.67,-198.02l-393.7 -50.27c-798.89,-101.99 -1432.36,-738.06 -1437.81,-1559l-220.51 -33017.03c-6,-897 754.26,-1576.38 1629.94,-1590.11l349.19 -5.47c109.05,-1.71 196.87,-90.92 196.87,-199.98l0 -3000.24c0,-1183.91 971.14,-2117.8 2139.53,-2156.68l30190.77 -1005.89c1437.97,-47.89 2426.56,844.91 2426.56,2325.53l0 3306.36c0,112.12 90.27,201.32 202.38,199.99l131.62 -1.57c892.01,-10.62 1607.55,704.06 1607.55,1594.03l0 17360.91c0,105.29 81.1,192.22 186.14,199.52l32895.22 2284.84c544.46,37.78 980.81,484.36 980.81,1035.5l0 44810.21c0,438.47 -260.68,834.82 -682.68,973.6l-217.27 71.45c-83.48,27.45 -137.52,102.11 -137.52,189.99l0 15743.81c0,247.33 -175.54,453.66 -408.82,501.19 -7.85,1.6 -14.46,3.35 -22.07,5.83l-3319.39 1082.51zm580.36 -1255.92l2008.87 -655.13c83.71,-27.3 137.99,-102.09 137.99,-190.14l0 -7001.02c0,-58.25 -22.11,-108.39 -65.12,-147.67l-2008.87 -1834.93c-59.83,-54.65 -141.44,-68.02 -215.58,-35.33 -74.14,32.7 -119.3,101.97 -119.3,183l0 9491.08c0,136.64 132.11,232.5 262.01,190.14zm3053.87 -17251.53c83.47,-27.45 137.52,-102.11 137.52,-189.98l0 -44243.55c0,-123.33 -108.59,-216.44 -230.47,-197.67l-25080.19 3866.54c-43.86,6.74 -47.91,19.07 -47.91,55.34l0 48786.52c0,269.65 -51.01,234.28 232.61,141.01 8329.04,-2739.39 16660.05,-5479.06 24988.44,-8218.21zm-5941.43 3335.38c1566.54,1430.9 3133,2861.74 4699.54,4292.64 59.83,54.65 141.44,68.02 215.58,35.33 74.14,-32.7 119.3,-101.97 119.3,-183l0 -5838.22c0,-66.22 -29.09,-123.18 -82.73,-162.01 -53.64,-38.83 -116.85,-48.66 -179.75,-27.97l-4699.53 1545.57c-69.41,22.82 -117.76,76.62 -133.08,148.06 -15.31,71.43 6.73,140.32 60.67,189.6zm-61222.23 12429.13l2008.87 437.55c61.16,13.32 119.29,-0.4 168.03,-39.68 48.75,-39.27 74.53,-93.14 74.53,-155.74l0 -9220.23c0,-81.03 -45.16,-150.3 -119.3,-183 -74.14,-32.69 -155.75,-19.32 -215.58,35.33l-2008.87 1834.93c-43.01,39.28 -65.12,89.42 -65.12,147.67l0 6947.75c0,95.12 64.5,175.18 157.44,195.42zm42047.04 8807.4l1532.36 -503.96c83.48,-27.45 137.52,-102.11 137.52,-189.99l0 -14822.96c0,-66.22 -29.09,-123.19 -82.73,-162.01 -53.64,-38.83 -116.98,-49.02 -179.75,-27.98l-1514.35 507.79c-89.53,30.01 -155.53,100.56 -155.53,194.99l0 14814.14c0,136.83 132.5,232.74 262.48,189.98zm-2940.57 -289.81l1758.19 382.94c125.37,27.3 242.56,-67.11 242.56,-195.42l0 -14768.74c0,-197.71 -127.2,-247.93 -330.43,-290.18l-1585.2 -329.52c-61.27,-12.74 -119.29,0.41 -168.03,39.68 -48.75,39.27 -74.53,93.14 -74.53,155.74l0 14810.08c0,95.12 64.5,175.18 157.44,195.42zm-38929.03 -17437.98c1749.58,-1598.09 3499.1,-3196.13 5248.69,-4794.24 56.62,-51.72 78.17,-125.59 58.24,-199.63 -19.92,-74.05 -75.63,-127.13 -150.56,-143.45l-5248.69 -1143.2c-61.16,-13.32 -119.29,0.4 -168.03,39.68 -48.75,39.27 -74.53,93.14 -74.53,155.74l0 5937.43c0,81.03 45.16,150.3 119.3,183 74.14,32.69 155.75,19.32 215.58,-35.33zm39880.99 1387.01c200.93,43.74 411.93,92.64 617.9,135.39 203.02,42.14 250.28,103.14 250.28,-223.18l0 -48853c-0.11,-12.5 -6.72,-21.9 -19.86,-22.68l-6439.69 -388.54c-57.09,-3.45 -107.5,14.82 -149.14,54.02 -41.65,39.2 -62.91,88.43 -62.91,145.62l0 4466.78c0,104.11 79.06,190.3 182.79,199.26l1660.35 143.43c338.8,29.24 600.21,314.12 600.21,654.17l0 37262.43c0,411.48 -376.64,722.87 -780.97,644.19l-32255.39 -6281.72c-154.92,-30.18 -287.73,-112.44 -382.29,-227.19 -94.69,-114.9 -150.09,-260.43 -150.09,-417l0 -25211.14c0,-101.25 -74.23,-185.57 -174.67,-198.39l-4109.96 -524.81c-59.12,-7.55 -112.94,8.98 -157.63,48.4 -44.7,39.43 -67.81,90.76 -67.7,150.36l54.43 29413.09c0.02,13.1 6.55,18.23 18.35,20.79 13787.81,3002.93 27577.65,6006.57 41365.99,9009.72zm5044.76 7215.95l6226.97 -8792.43c50.76,-71.67 49.84,-163.77 -2.34,-234.41 -52.18,-70.65 -139.93,-98.61 -223.36,-71.17l-6226.96 2047.92c-83.48,27.45 -137.52,102.11 -137.52,189.99l0 6744.51c0,88.55 54.96,163.73 139.34,190.58 84.38,26.86 172.69,-2.72 223.87,-74.99zm-13274.97 -7609.28l5738.51 7551.04c52.86,69.56 140.28,96.41 223.08,68.52 82.8,-27.88 136.16,-102.16 136.16,-189.53l0 -6301.17c0,-95.12 -64.5,-175.18 -157.44,-195.42l-5738.51 -1249.87c-83.43,-18.17 -165.29,15.89 -211.19,87.88 -45.91,71.99 -42.27,160.57 9.39,228.55zm-10962.77 -39341.02c-314.96,314.96 -793.86,-163.94 -478.9,-478.9l5097.42 -5097.4c132.24,-132.24 346.66,-132.24 478.9,0 132.24,132.24 132.24,346.66 0,478.9l-5097.42 5097.4zm2958.38 449.54c-314.96,314.96 -793.86,-163.94 -478.9,-478.9l2298.52 -2298.52c314.96,-314.96 793.86,163.94 478.9,478.9l-2298.52 2298.52zm7466.57 -36473.72l0 -3307.44c0,-911.26 -486.69,-1351.82 -1355.62,-1322.88l-30206.67 1006.42c-619.14,20.6 -1148.45,504.92 -1148.45,1137.62l0 2977.92c0,112.43 90.73,201.73 203.14,199.97l884.28 -13.86c109.04,-1.71 196.86,-90.92 196.86,-199.98l0 -1643.24c0,-749.36 479.21,-1258.45 1231.81,-1283.6l27798.49 -929.37c594.59,-19.94 1111.87,435.32 1111.87,1039.19l0 2349.78c0,55.5 19.95,103.26 59.42,142.26 39.48,39.01 87.47,58.39 142.96,57.73l884.29 -10.54c109.31,-1.3 197.62,-90.66 197.62,-199.98zm-2307.35 27.48l0 -2240.66c0,-153.48 -50.29,-146.42 -160.51,-142.73l-27694.81 925.9c-199.05,6.64 -240.73,70.77 -240.73,264.54l0 1620.92c0,112.42 90.74,201.73 203.14,199.97l27480.98 -430.98c155.8,-2.44 411.93,41.81 411.93,-196.96zm-20703.45 58996.63l0 -20527.13c0,-101.25 -74.23,-185.57 -174.67,-198.39l-4072.64 -520.05c-59.05,-7.54 -112.81,8.94 -157.49,48.28 -44.68,39.34 -67.84,90.58 -67.84,150.11l0 24892.36c0,96.67 66.88,177.83 161.77,196.31l31814.06 6195.77c124.17,24.19 238.23,-69.8 238.23,-196.31l0 -36792.92c0,-104.11 -79.06,-190.3 -182.79,-199.26l-1366.01 -118c-57.88,-5 -109.59,12.6 -152.41,51.88 -42.81,39.27 -64.8,89.28 -64.8,147.38l0 6918.96c0,1022.2 -748.73,1527.31 -1699.42,1584.16l-819.14 49c-105.78,6.33 -188.06,93.67 -188.06,199.64 0,7456.25 0,14911.94 0,22368.13 0,107.33 -23.57,210.95 -69.53,308.4 -44.67,94.74 -110.21,178.4 -195.33,248.56 -85.15,70.15 -180.1,118.51 -282.19,144.4 -101.36,25.72 -206.42,28.56 -312.48,7.89l-21683.77 -4222.91c-393.25,-76.56 -725.49,-274.37 -725.49,-736.26zm1267.76 -474.66l20836.79 -5583.19c88.67,-23.76 148.24,-101.39 148.24,-193.19l0 -11782.46c0,-57.17 -21.25,-106.38 -62.87,-145.58 -41.61,-39.2 -92,-57.47 -149.07,-54.06l-1171.33 70.07c-258.52,15.46 -574.14,59.85 -888.66,11.25l-18739.53 -2392.9c-59.04,-7.54 -112.81,8.94 -157.49,48.28 -44.68,39.34 -67.84,90.58 -67.84,150.11l0 19678.49c0,64.26 27.27,119.55 78.25,158.67 50.98,39.11 111.44,51.14 173.51,34.51zm20733.27 -4497.69l-18223.32 4882.91c-91.03,24.39 -151.39,105.96 -148.12,200.14 3.28,94.17 69.16,171.35 161.65,189.36l18223.32 3548.98c60.68,11.82 117.71,-2.65 165.42,-41.96 47.71,-39.32 72.81,-92.53 72.81,-154.35l0 -8431.9c0,-64.26 -27.27,-119.55 -78.25,-158.67 -50.98,-39.11 -111.44,-51.14 -173.51,-34.51zm336.75 -14294.17l1878.67 -112.37c396.51,-23.71 742.96,-114.36 742.96,-572.12l0 -37297.61c0,-327.72 -249.48,-585.92 -579.65,-581.99l-2246.76 26.76c-128.03,1.54 -220.98,119.36 -192.66,244.23 25.05,110.46 37.63,224.31 37.63,341.36l-15.04 37599c-0.06,183.28 28.74,373.45 374.85,352.74zm3637.63 -19203.51l0 4635.72c0,105.93 82.22,193.26 187.96,199.64l6523.32 393.58c310.71,18.73 454.62,39.55 857.15,-22.49l20118.94 -3101.67c233.73,-36.02 219.31,-380.8 -16.61,-397.18l-27456.9 -1907.12c-57.37,-3.99 -108.24,14.05 -150.29,53.28 -42.05,39.23 -63.57,88.73 -63.57,146.24z"/></g></svg>